<mxfile host="65bd71144e">
    <diagram id="eQN-SkB2sh2Zs2PLH4ii" name="Page-1">
        <mxGraphModel dx="425" dy="604" grid="1" gridSize="10" guides="1" tooltips="1" connect="1" arrows="1" fold="1" page="1" pageScale="1" pageWidth="850" pageHeight="1100" math="0" shadow="0">
            <root>
                <mxCell id="0"/>
                <mxCell id="1" parent="0"/>
                <mxCell id="2" value="" style="edgeStyle=none;html=1;" edge="1" parent="1" source="3" target="9">
                    <mxGeometry relative="1" as="geometry"/>
                </mxCell>
                <mxCell id="3" value="InicializaciÃ³n de variables" style="rounded=0;whiteSpace=wrap;html=1;fillColor=#6d8764;fontColor=#ffffff;strokeColor=#3A5431;" vertex="1" parent="1">
                    <mxGeometry x="365" y="90" width="120" height="60" as="geometry"/>
                </mxCell>
                <mxCell id="4" value="" style="edgeStyle=none;html=1;" edge="1" parent="1" source="5" target="3">
                    <mxGeometry relative="1" as="geometry"/>
                </mxCell>
                <mxCell id="5" value="Inicio" style="ellipse;whiteSpace=wrap;html=1;fillColor=#008a00;fontColor=#ffffff;strokeColor=#005700;" vertex="1" parent="1">
                    <mxGeometry x="377" y="30" width="95.5" height="40" as="geometry"/>
                </mxCell>
                <mxCell id="6" style="edgeStyle=none;html=1;exitX=0.5;exitY=1;exitDx=0;exitDy=0;entryX=0.5;entryY=0;entryDx=0;entryDy=0;fontColor=#FFFFFF;startArrow=none;" edge="1" parent="1" source="23" target="20">
                    <mxGeometry relative="1" as="geometry"/>
                </mxCell>
                <mxCell id="7" value="&lt;span style=&quot;font-weight: 400;&quot;&gt;Blucle de do-while&lt;/span&gt;" style="swimlane;whiteSpace=wrap;html=1;fillColor=#1ba1e2;fontColor=#ffffff;strokeColor=#006EAF;" vertex="1" parent="1">
                    <mxGeometry x="324.5" y="170" width="200" height="720" as="geometry"/>
                </mxCell>
                <mxCell id="8" value="" style="edgeStyle=none;html=1;startArrow=none;" edge="1" parent="7" source="16" target="11">
                    <mxGeometry relative="1" as="geometry"/>
                </mxCell>
                <mxCell id="9" value="Ingrese el Numero:" style="rounded=0;whiteSpace=wrap;html=1;fillColor=#6d8764;fontColor=#ffffff;strokeColor=#3A5431;" vertex="1" parent="7">
                    <mxGeometry x="40" y="40" width="120" height="20" as="geometry"/>
                </mxCell>
                <mxCell id="10" value="" style="edgeStyle=none;html=1;entryX=0.5;entryY=0;entryDx=0;entryDy=0;" edge="1" parent="7" source="11" target="18">
                    <mxGeometry relative="1" as="geometry">
                        <mxPoint x="100" y="200" as="targetPoint"/>
                    </mxGeometry>
                </mxCell>
                <mxCell id="11" value="Verificar condiciones" style="rounded=0;whiteSpace=wrap;html=1;fillColor=#6d8764;fontColor=#ffffff;strokeColor=#3A5431;" vertex="1" parent="7">
                    <mxGeometry x="40" y="120" width="120" height="60" as="geometry"/>
                </mxCell>
                <mxCell id="12" value="" style="edgeStyle=none;html=1;fontColor=#33FF99;exitX=0.5;exitY=1;exitDx=0;exitDy=0;" edge="1" parent="7" source="18">
                    <mxGeometry relative="1" as="geometry">
                        <mxPoint x="100" y="340" as="sourcePoint"/>
                        <mxPoint x="99.625" y="360" as="targetPoint"/>
                    </mxGeometry>
                </mxCell>
                <mxCell id="13" value="" style="edgeStyle=none;html=1;fontColor=#990099;exitX=0.5;exitY=1;exitDx=0;exitDy=0;" edge="1" parent="7" source="19" target="14">
                    <mxGeometry relative="1" as="geometry">
                        <mxPoint x="100.00000000000011" y="540" as="sourcePoint"/>
                    </mxGeometry>
                </mxCell>
                <mxCell id="14" value="&lt;font color=&quot;#ffffff&quot;&gt;Si numero es mayor a &lt;/font&gt;&lt;font color=&quot;#990099&quot;&gt;&lt;b&gt;1000&lt;/b&gt;&lt;/font&gt;&lt;font color=&quot;#ffffff&quot;&gt;, muestra mensaje de &lt;/font&gt;&lt;b style=&quot;&quot;&gt;&lt;font color=&quot;#ffff00&quot;&gt;error&lt;/font&gt;&lt;/b&gt;&lt;font color=&quot;#ffffff&quot;&gt;.&lt;/font&gt;" style="rounded=0;whiteSpace=wrap;html=1;labelBackgroundColor=none;fontColor=#ffffff;fillColor=#6d8764;strokeColor=#3A5431;" vertex="1" parent="7">
                    <mxGeometry x="40" y="530" width="120" height="60" as="geometry"/>
                </mxCell>
                <mxCell id="15" value="&lt;font color=&quot;#ffffff&quot;&gt;Repite bucle mientras la respuesta del usuario no sea &lt;/font&gt;&lt;font color=&quot;#33ff99&quot;&gt;&lt;b&gt;'n'&lt;/b&gt;&lt;/font&gt;&lt;font color=&quot;#ffffff&quot;&gt;.&lt;/font&gt;" style="rounded=0;whiteSpace=wrap;html=1;labelBackgroundColor=none;fontColor=#ffffff;fillColor=#6d8764;strokeColor=#3A5431;" vertex="1" parent="7">
                    <mxGeometry x="39.5" y="610" width="120" height="60" as="geometry"/>
                </mxCell>
                <mxCell id="16" value="&lt;font color=&quot;#ffffff&quot;&gt;numero&lt;/font&gt;" style="shape=parallelogram;perimeter=parallelogramPerimeter;whiteSpace=wrap;html=1;fixedSize=1;labelBackgroundColor=none;fontColor=#000000;fillColor=#f0a30a;strokeColor=#BD7000;" vertex="1" parent="7">
                    <mxGeometry x="40" y="70" width="120" height="30" as="geometry"/>
                </mxCell>
                <mxCell id="17" value="" style="edgeStyle=none;html=1;endArrow=none;" edge="1" parent="7" source="9" target="16">
                    <mxGeometry relative="1" as="geometry">
                        <mxPoint x="425" y="230" as="sourcePoint"/>
                        <mxPoint x="425" y="290" as="targetPoint"/>
                    </mxGeometry>
                </mxCell>
                <mxCell id="18" value="&lt;font style=&quot;font-size: 8px;&quot;&gt;&lt;span style=&quot;color: rgb(240, 240, 240);&quot;&gt;Si numero esta entre&amp;nbsp;&lt;/span&gt;&lt;font style=&quot;font-size: 8px;&quot; color=&quot;#990099&quot;&gt;&lt;b&gt;0&amp;nbsp;&lt;/b&gt;&lt;/font&gt;&lt;span style=&quot;color: rgb(240, 240, 240);&quot;&gt;y&amp;nbsp;&lt;/span&gt;&lt;font style=&quot;font-size: 8px;&quot; color=&quot;#990099&quot;&gt;&lt;b&gt;500&lt;/b&gt;&lt;/font&gt;&lt;span style=&quot;color: rgb(240, 240, 240);&quot;&gt;, entra en bucle&amp;nbsp;&lt;/span&gt;&lt;font style=&quot;font-size: 8px;&quot; color=&quot;#33ff99&quot;&gt;&lt;b&gt;for&amp;nbsp;&lt;/b&gt;&lt;/font&gt;&lt;span style=&quot;color: rgb(240, 240, 240);&quot;&gt;e imprime de&amp;nbsp;&lt;/span&gt;&lt;font style=&quot;font-size: 8px;&quot; color=&quot;#990099&quot;&gt;&lt;b&gt;5&amp;nbsp;&lt;/b&gt;&lt;/font&gt;&lt;span style=&quot;color: rgb(240, 240, 240);&quot;&gt;en&amp;nbsp;&lt;/span&gt;&lt;b style=&quot;color: rgb(240, 240, 240);&quot;&gt;&lt;font style=&quot;font-size: 8px;&quot; color=&quot;#990099&quot;&gt;5&amp;nbsp;&lt;/font&gt;&lt;/b&gt;&lt;span style=&quot;color: rgb(240, 240, 240);&quot;&gt;hasta&amp;nbsp;&lt;/span&gt;&lt;b style=&quot;color: rgb(240, 240, 240);&quot;&gt;&lt;font style=&quot;font-size: 8px;&quot; color=&quot;#990099&quot;&gt;500&lt;/font&gt;&lt;/b&gt;&lt;span style=&quot;color: rgb(240, 240, 240);&quot;&gt;. Incrementa contador y pregunta si desea continuar&lt;/span&gt;&lt;/font&gt;" style="rhombus;whiteSpace=wrap;html=1;labelBackgroundColor=none;fontColor=#ffffff;align=center;fillColor=#a0522d;strokeColor=#6D1F00;" vertex="1" parent="7">
                    <mxGeometry x="27" y="210" width="145" height="120" as="geometry"/>
                </mxCell>
                <mxCell id="19" value="&lt;font style=&quot;font-size: 10px;&quot;&gt;&lt;span style=&quot;color: rgb(240, 240, 240);&quot;&gt;Si el numero esta entre&amp;nbsp;&lt;/span&gt;&lt;b style=&quot;color: rgb(240, 240, 240);&quot;&gt;&lt;font style=&quot;font-size: 10px;&quot; color=&quot;#990099&quot;&gt;501&lt;/font&gt;&lt;/b&gt;&lt;span style=&quot;color: rgb(240, 240, 240);&quot;&gt;&amp;nbsp;y&amp;nbsp;&lt;/span&gt;&lt;b style=&quot;color: rgb(240, 240, 240);&quot;&gt;&lt;font style=&quot;font-size: 10px;&quot; color=&quot;#990099&quot;&gt;1000&lt;/font&gt;&lt;/b&gt;&lt;span style=&quot;color: rgb(240, 240, 240);&quot;&gt;, entra en otro bucle&amp;nbsp;&lt;/span&gt;&lt;font style=&quot;font-size: 10px;&quot; color=&quot;#33ff99&quot;&gt;&lt;b&gt;for&amp;nbsp;&lt;/b&gt;&lt;/font&gt;&lt;span style=&quot;color: rgb(240, 240, 240);&quot;&gt;e imprime de&amp;nbsp;&lt;/span&gt;&lt;b style=&quot;color: rgb(240, 240, 240);&quot;&gt;&lt;font style=&quot;font-size: 10px;&quot; color=&quot;#990099&quot;&gt;10&amp;nbsp;&lt;/font&gt;&lt;/b&gt;&lt;span style=&quot;color: rgb(240, 240, 240);&quot;&gt;en&amp;nbsp;&lt;/span&gt;&lt;b style=&quot;color: rgb(240, 240, 240);&quot;&gt;&lt;font style=&quot;font-size: 10px;&quot; color=&quot;#990099&quot;&gt;10&lt;/font&gt;&lt;/b&gt;&lt;span style=&quot;color: rgb(240, 240, 240);&quot;&gt;&amp;nbsp;hasta&amp;nbsp;&lt;/span&gt;&lt;b style=&quot;color: rgb(240, 240, 240);&quot;&gt;&lt;font style=&quot;font-size: 10px;&quot; color=&quot;#990099&quot;&gt;1000&lt;/font&gt;&lt;/b&gt;&lt;span style=&quot;color: rgb(240, 240, 240);&quot;&gt;.&lt;/span&gt;&lt;br style=&quot;color: rgb(240, 240, 240);&quot;&gt;&lt;span style=&quot;color: rgb(240, 240, 240);&quot;&gt;Incrementa contador y presunta si desea continuar.&lt;/span&gt;&lt;/font&gt;" style="rhombus;whiteSpace=wrap;html=1;labelBackgroundColor=none;fontSize=8;fontColor=#ffffff;fillColor=#a0522d;strokeColor=#6D1F00;" vertex="1" parent="7">
                    <mxGeometry x="19.5" y="360" width="160" height="150" as="geometry"/>
                </mxCell>
                <mxCell id="20" value="&lt;font color=&quot;#ffffff&quot;&gt;Fin del programa&lt;/font&gt;" style="ellipse;whiteSpace=wrap;html=1;labelBackgroundColor=none;fontColor=#ffffff;fillColor=#60a917;strokeColor=#2D7600;" vertex="1" parent="1">
                    <mxGeometry x="364.5" y="1000" width="120" height="80" as="geometry"/>
                </mxCell>
                <mxCell id="21" style="edgeStyle=none;html=1;exitX=0.5;exitY=1;exitDx=0;exitDy=0;fontColor=#FFFFFF;" edge="1" parent="1" source="14">
                    <mxGeometry relative="1" as="geometry">
                        <mxPoint x="425" y="770" as="targetPoint"/>
                    </mxGeometry>
                </mxCell>
                <mxCell id="22" value="" style="edgeStyle=none;html=1;exitX=0.5;exitY=1;exitDx=0;exitDy=0;entryX=0.5;entryY=0;entryDx=0;entryDy=0;fontColor=#FFFFFF;endArrow=none;" edge="1" parent="1" source="7" target="23">
                    <mxGeometry relative="1" as="geometry">
                        <mxPoint x="425.0000000000001" y="880" as="sourcePoint"/>
                        <mxPoint x="425.0000000000001" y="970" as="targetPoint"/>
                    </mxGeometry>
                </mxCell>
                <mxCell id="23" value="&lt;font style=&quot;font-size: 10px;&quot; color=&quot;#ffffff&quot;&gt;Imprimiria los resulados y mostraria el contador&amp;nbsp;&lt;/font&gt;" style="shape=parallelogram;perimeter=parallelogramPerimeter;whiteSpace=wrap;html=1;fixedSize=1;labelBackgroundColor=none;fontSize=10;fontColor=#000000;fillColor=#f0a30a;strokeColor=#BD7000;align=center;" vertex="1" parent="1">
                    <mxGeometry x="324.5" y="910" width="200" height="70" as="geometry"/>
                </mxCell>
            </root>
        </mxGraphModel>
    </diagram>
</mxfile>